<svg xmlns="http://www.w3.org/2000/svg" width="102.365" height="29.874" viewBox="0 0 102.365 29.874">
    <style type="text/css">
        <![CDATA[
        .fil0 {fill:#00AFA5;fill-rule:nonzero}
        ]]>
    </style>
    <path class="fil0" d="M33.375 3.666c4.902,0 8.876,3.974 8.876,8.876 0,4.902 -3.974,8.876 -8.876,8.876 -1.79,0 -3.456,-0.53 -4.85,-1.442 -0.304,-0.199 -0.695,-0.158 -0.952,0.098l-2.208 2.209 7.295 7.295c0.394,0.394 1.037,0.394 1.431,0l8.16 -8.16c2.444,-2.444 3.666,-5.66 3.666,-8.876 0,-3.216 -1.222,-6.432 -3.666,-8.876l0 0 0 0c-2.444,-2.444 -5.66,-3.666 -8.876,-3.666 -3.215,0 -6.431,1.222 -8.875,3.666l0 0 0 0c-2.445,2.444 -3.667,5.66 -3.667,8.876 0,2.832 0.948,5.663 2.843,7.968l2.166 -2.166c0.257,-0.257 0.298,-0.648 0.099,-0.952 -0.911,-1.394 -1.441,-3.06 -1.441,-4.85 0,-4.902 3.973,-8.876 8.875,-8.876zm0 4.403c-0.717,0 -1.367,0.291 -1.836,0.761 -0.47,0.47 -0.761,1.119 -0.761,1.836 0,0.717 0.291,1.367 0.761,1.837 0.469,0.469 1.119,0.761 1.836,0.761 0.717,0 1.367,-0.292 1.837,-0.761 0.469,-0.47 0.76,-1.12 0.76,-1.837 0,-0.717 -0.29,-1.366 -0.76,-1.836 -0.47,-0.47 -1.12,-0.761 -1.837,-0.761zm0 -2.597c3.904,0 7.07,3.166 7.07,7.07 0,1.51 -0.474,2.909 -1.281,4.058l-0.064 -0.064c-3.153,-3.153 -8.297,-3.153 -11.449,0l-0.065 0.064c-0.806,-1.149 -1.281,-2.548 -1.281,-4.058 0,-3.904 3.166,-7.07 7.07,-7.07z" />
</svg>
