<!--version="1.0" encoding="UTF-8"--><!DOCTYPE html PUBLIC "-//W3C//DTD SVG 1.1//EN" "http://www.w3.org/Graphics/SVG/1.1/DTD/svg11.dtd"><!-- Creator: CorelDRAW 2020 (64-Bit) --><svg xmlns="http://www.w3.org/2000/svg" xml:space="preserve" width="2000px" height="507px" version="1.1" style="fill-rule: evenodd; clip-rule: evenodd;" viewBox="0 0 269.356 68.254" xmlns:xlink="http://www.w3.org/1999/xlink" xmlns:xodm="http://www.corel.com/coreldraw/odm/2003" preserveAspectRatio="xMidYMid meet" zoomAndPan="magnify" contentScriptType="application/ecmascript" contentStyleType="text/css"><defs><style type="text/css" xml:space="preserve">.fil0 { fill: rgb(0, 175, 165); fill-rule: nonzero; }</style></defs><g id="Layer_x0020_1"><metadata id="CorelCorpID_0Corel-Layer"/><g id="_1866878019392"><g><path class="fil0" d="M83.992 18.739c-1.273,0 -2.053,0.829 -2.381,1.896l-4.884 15.905 -5.295 -15.905c-0.369,-1.067 -1.314,-1.896 -2.381,-1.896l-4.391 0c-0.904,0 -1.643,0.788 -1.314,1.69l8.948 25.024c0.451,1.273 1.436,2.059 2.873,2.059l2.914 0c1.436,0 2.462,-0.786 2.873,-2.059l4.885 -15.453 4.884 15.453c0.411,1.273 1.437,2.059 2.873,2.059l2.914 0c1.437,0 2.422,-0.786 2.874,-2.059l8.947 -25.024c0.329,-0.902 -0.41,-1.69 -1.312,-1.69l-4.393 0c-1.067,0 -2.012,0.829 -2.381,1.896l-5.294 15.905 -4.884 -15.905c-0.329,-1.067 -1.109,-1.896 -2.382,-1.896l-3.693 0z"/><path class="fil0" d="M212.4 18.739c-1.067,0 -1.889,0.869 -1.889,1.937l0 24.989c0,1.026 0.863,1.847 1.889,1.847l23.108 0c1.027,0 1.888,-0.821 1.888,-1.888l0 -1.887c0,-1.067 -0.861,-1.889 -1.888,-1.889l-17.444 0 0 -21.172c0,-1.068 -0.821,-1.937 -1.889,-1.937l-3.775 0z"/><path class="fil0" d="M183.545 47.512c1.027,0 1.888,-0.821 1.888,-1.847l0 -9.728 4.31 0c2.586,0 4.105,1.684 5.623,4.105l3.53 5.582c0.657,1.067 2.052,1.888 3.078,1.888l4.597 0c1.067,0 1.355,-0.821 0.698,-1.888l-5.008 -7.962c-1.149,-1.765 -3.201,-4.269 -5.171,-4.679 2.791,-0.657 4.145,-2.586 5.171,-4.433l4.351 -7.881c0.616,-1.108 0.411,-1.93 -0.615,-1.93l-4.638 0c-1.026,0 -2.134,0.617 -2.873,1.93l-3.12 5.542c-1.6,2.873 -3.283,4.062 -5.623,4.062l-4.31 0 0 -9.604c0,-1.067 -0.861,-1.93 -1.888,-1.93l-3.776 0c-1.026,0 -1.888,0.863 -1.888,1.93l0 24.915c0,1.067 0.862,1.928 1.888,1.928l3.776 0z"/><path class="fil0" d="M160.806 24.404c2.298,0 5.213,0.821 5.213,3.468 0,2.648 -2.915,3.468 -5.213,3.468l-4.582 0c-0.955,0 -1.734,0.78 -1.734,1.735l0 2.196c0,0.955 0.779,1.735 1.734,1.735l0.929 0c2.586,0 4.064,1.682 5.09,3.282l3.406 5.336c0.658,1.067 2.053,1.888 3.079,1.888l4.802 0c1.067,0 1.355,-0.821 0.697,-1.888l-3.652 -5.786c-1.642,-2.587 -2.873,-4.023 -4.556,-4.64 4.146,-0.82 7.552,-2.872 7.552,-7.326 0,-5.684 -4.473,-9.133 -10.467,-9.133l-16.54 0c-1.027,0 -1.847,0.822 -1.847,1.889l0 24.996c0,1.027 0.861,1.888 1.887,1.888l3.777 0c1.067,0 1.888,-0.861 1.888,-1.888 0,-7.073 0,-14.146 0,-21.22l8.537 0z"/><path class="fil0" d="M252.528 24.404c7.348,0 9.276,2.552 9.276,8.722 0,6.171 -1.928,8.722 -9.276,8.722 -3.718,0 -7.436,0 -11.154,0 -0.955,0 -1.734,0.779 -1.734,1.734l0 2.083c0,1.026 0.861,1.847 1.888,1.847l11.205 0c11.698,0 16.623,-4.555 16.623,-14.386 0,-9.83 -4.925,-14.387 -16.623,-14.387l-11.205 0c-1.067,0 -1.888,0.863 -1.888,1.93l0 16.248c0,0.955 0.779,1.734 1.734,1.734l4.084 0c0.955,0 1.734,-0.779 1.734,-1.734l0 -12.513 5.336 0z"/><path class="fil0" d="M124.954 23.583c6.157,0 8.578,3.407 8.578,9.563 0,6.157 -2.421,9.565 -8.578,9.565 -6.156,0 -8.578,-3.408 -8.578,-9.565 0,-6.156 2.422,-9.563 8.578,-9.563zm-16.131 9.563c0,10.672 5.87,14.982 16.131,14.982 10.262,0 16.131,-4.31 16.131,-14.982 0,-10.671 -5.869,-14.981 -16.131,-14.981 -10.261,0 -16.131,4.31 -16.131,14.981z"/></g><path class="fil0" d="M28.656 8.377c11.199,0 20.278,9.079 20.278,20.279 0,11.2 -9.079,20.278 -20.278,20.278 -4.091,0 -7.898,-1.211 -11.083,-3.293 -0.693,-0.454 -1.588,-0.362 -2.174,0.224l-5.046 5.046 16.668 16.668c0.9,0.9 2.368,0.9 3.269,0l18.644 -18.645c5.585,-5.584 8.377,-12.932 8.377,-20.278 -0.001,-7.347 -2.793,-14.694 -8.377,-20.279l0 0 0 0c-5.586,-5.585 -12.932,-8.377 -20.278,-8.377 -7.348,0 -14.694,2.792 -20.279,8.377l0 0 0 0c-5.585,5.585 -8.377,12.932 -8.377,20.279 0,6.469 2.165,12.939 6.496,18.205l4.949 -4.949c0.587,-0.587 0.679,-1.481 0.225,-2.175 -2.082,-3.185 -3.293,-6.992 -3.293,-11.081 0,-11.2 9.078,-20.279 20.279,-20.279zm0 10.059c-1.64,0 -3.123,0.664 -4.198,1.738 -1.073,1.074 -1.737,2.557 -1.737,4.195 0,1.639 0.665,3.125 1.737,4.197 1.073,1.073 2.558,1.738 4.198,1.738 1.638,0 3.123,-0.665 4.195,-1.738 1.073,-1.072 1.738,-2.558 1.738,-4.197 0,-1.638 -0.664,-3.121 -1.738,-4.195 -1.074,-1.074 -2.557,-1.738 -4.195,-1.738zm0 -5.933c8.92,0 16.151,7.232 16.151,16.153 0,3.45 -1.082,6.648 -2.926,9.272l-0.147 -0.147c-7.203,-7.203 -18.955,-7.203 -26.158,0l-0.147 0.147c-1.843,-2.624 -2.926,-5.822 -2.926,-9.272 0,-8.921 7.231,-16.153 16.153,-16.153z"/></g></g></svg>