<?xml version="1.0" encoding="UTF-8"?>
<!DOCTYPE svg PUBLIC "-//W3C//DTD SVG 1.1//EN" "http://www.w3.org/Graphics/SVG/1.1/DTD/svg11.dtd">
<!-- Creator: CorelDRAW 2020 (64-Bit) -->
<svg xmlns="http://www.w3.org/2000/svg" xml:space="preserve" width="2001px" height="582px" version="1.1" style="shape-rendering:geometricPrecision; text-rendering:geometricPrecision; image-rendering:optimizeQuality; fill-rule:evenodd; clip-rule:evenodd"
viewBox="0 0 102.365 29.874"
 xmlns:xlink="http://www.w3.org/1999/xlink"
 xmlns:xodm="http://www.corel.com/coreldraw/odm/2003">
 <defs>
  <style type="text/css">
   <![CDATA[
    .fil0 {fill:#00AFA5;fill-rule:nonzero}
   ]]>
  </style>
 </defs>
 <g id="Layer_x0020_1">
  <metadata id="CorelCorpID_0Corel-Layer"/>
  <g id="_1867188225232">
   <path class="fil0" d="M33.375 3.666c4.902,0 8.876,3.974 8.876,8.876 0,4.902 -3.974,8.876 -8.876,8.876 -1.79,0 -3.456,-0.53 -4.85,-1.442 -0.304,-0.199 -0.695,-0.158 -0.952,0.098l-2.208 2.209 7.295 7.295c0.394,0.394 1.037,0.394 1.431,0l8.16 -8.16c2.444,-2.444 3.666,-5.66 3.666,-8.876 0,-3.216 -1.222,-6.432 -3.666,-8.876l0 0 0 0c-2.444,-2.444 -5.66,-3.666 -8.876,-3.666 -3.215,0 -6.431,1.222 -8.875,3.666l0 0 0 0c-2.445,2.444 -3.667,5.66 -3.667,8.876 0,2.832 0.948,5.663 2.843,7.968l2.166 -2.166c0.257,-0.257 0.298,-0.648 0.099,-0.952 -0.911,-1.394 -1.441,-3.06 -1.441,-4.85 0,-4.902 3.973,-8.876 8.875,-8.876zm0 4.403c-0.717,0 -1.367,0.291 -1.836,0.761 -0.47,0.47 -0.761,1.119 -0.761,1.836 0,0.717 0.291,1.367 0.761,1.837 0.469,0.469 1.119,0.761 1.836,0.761 0.717,0 1.367,-0.292 1.837,-0.761 0.469,-0.47 0.76,-1.12 0.76,-1.837 0,-0.717 -0.29,-1.366 -0.76,-1.836 -0.47,-0.47 -1.12,-0.761 -1.837,-0.761zm0 -2.597c3.904,0 7.07,3.166 7.07,7.07 0,1.51 -0.474,2.909 -1.281,4.058l-0.064 -0.064c-3.153,-3.153 -8.297,-3.153 -11.449,0l-0.065 0.064c-0.806,-1.149 -1.281,-2.548 -1.281,-4.058 0,-3.904 3.166,-7.07 7.07,-7.07z"/>
   <path class="fil0" d="M9.071 6.778c-0.556,0 -0.898,0.363 -1.042,0.83l-2.137 6.961 -2.318 -6.961c-0.161,-0.467 -0.575,-0.83 -1.042,-0.83l-1.922 0c-0.395,0 -0.718,0.345 -0.575,0.74l3.917 10.953c0.197,0.557 0.628,0.901 1.257,0.901l1.276 0c0.628,0 1.078,-0.344 1.257,-0.901l2.138 -6.764 2.138 6.764c0.179,0.557 0.628,0.901 1.257,0.901l1.275 0c0.629,0 1.06,-0.344 1.258,-0.901l3.917 -10.953c0.143,-0.395 -0.18,-0.74 -0.576,-0.74l-1.922 0c-0.467,0 -0.88,0.363 -1.041,0.83l-2.318 6.961 -2.138 -6.961c-0.144,-0.467 -0.485,-0.83 -1.042,-0.83l-1.617 0z"/>
   <path class="fil0" d="M77.436 6.778c-0.468,0 -0.827,0.381 -0.827,0.848l0 10.938c0,0.448 0.378,0.808 0.827,0.808l10.114 0c0.449,0 0.826,-0.36 0.826,-0.826l0 -0.827c0,-0.467 -0.377,-0.827 -0.826,-0.827l-7.635 0 0 -9.266c0,-0.467 -0.359,-0.848 -0.827,-0.848l-1.652 0z"/>
   <path class="fil0" d="M64.806 19.372c0.45,0 0.827,-0.36 0.827,-0.808l0 -4.258 1.886 0c1.132,0 1.797,0.737 2.462,1.796l1.544 2.444c0.288,0.466 0.899,0.826 1.348,0.826l2.012 0c0.467,0 0.592,-0.36 0.305,-0.826l-2.192 -3.486c-0.503,-0.772 -1.401,-1.868 -2.263,-2.048 1.221,-0.287 1.814,-1.132 2.263,-1.94l1.905 -3.449c0.269,-0.485 0.18,-0.845 -0.27,-0.845l-2.03 0c-0.449,0 -0.934,0.27 -1.257,0.845l-1.365 2.425c-0.701,1.258 -1.438,1.779 -2.462,1.779l-1.886 0 0 -4.204c0,-0.467 -0.377,-0.845 -0.827,-0.845l-1.652 0c-0.449,0 -0.827,0.378 -0.827,0.845l0 10.905c0,0.467 0.378,0.844 0.827,0.844l1.652 0z"/>
   <path class="fil0" d="M54.854 9.258c1.006,0 2.281,0.359 2.281,1.518 0,1.159 -1.275,1.518 -2.281,1.518l-2.006 0c-0.418,0 -0.759,0.341 -0.759,0.758l0 0.962c0,0.418 0.341,0.759 0.759,0.759l0.407 0c1.132,0 1.779,0.736 2.228,1.437l1.491 2.336c0.287,0.466 0.898,0.826 1.347,0.826l2.102 0c0.467,0 0.593,-0.36 0.305,-0.826l-1.598 -2.534c-0.719,-1.131 -1.258,-1.76 -1.995,-2.03 1.815,-0.359 3.306,-1.257 3.306,-3.206 0,-2.488 -1.958,-3.998 -4.581,-3.998l-7.24 0c-0.449,0 -0.808,0.36 -0.808,0.827l0 10.941c0,0.449 0.377,0.826 0.826,0.826l1.653 0c0.467,0 0.826,-0.377 0.826,-0.826 0,-3.097 0,-6.193 0,-9.288l3.737 0z"/>
   <path class="fil0" d="M94.999 9.258c3.216,0 4.06,1.116 4.06,3.817 0,2.701 -0.844,3.817 -4.06,3.817 -1.627,0 -3.255,0 -4.882,0 -0.418,0 -0.759,0.342 -0.759,0.76l0 0.912c0,0.448 0.378,0.808 0.827,0.808l4.904 0c5.12,0 7.276,-1.994 7.276,-6.297 0,-4.302 -2.156,-6.297 -7.276,-6.297l-4.904 0c-0.468,0 -0.827,0.378 -0.827,0.845l0 7.111c0,0.418 0.341,0.759 0.759,0.759l1.788 0c0.418,0 0.759,-0.341 0.759,-0.759l0 -5.476 2.335 0z"/>
  </g>
 </g>
</svg>
