<?xml version="1.0" encoding="UTF-8"?>
<!DOCTYPE svg PUBLIC "-//W3C//DTD SVG 1.1//EN" "http://www.w3.org/Graphics/SVG/1.1/DTD/svg11.dtd">
<!-- Creator: CorelDRAW 2020 (64-Bit) -->
<svg xmlns="http://www.w3.org/2000/svg" xml:space="preserve" width="2000px" height="2400px" version="1.1" style="shape-rendering:geometricPrecision; text-rendering:geometricPrecision; image-rendering:optimizeQuality; fill-rule:evenodd; clip-rule:evenodd"
viewBox="0 0 143.111 170.436"
 xmlns:xlink="http://www.w3.org/1999/xlink"
 xmlns:xodm="http://www.corel.com/coreldraw/odm/2003">
 <defs>
  <style type="text/css">
   <![CDATA[
    .fil0 {fill:#00AFA5;fill-rule:nonzero}
   ]]>
  </style>
 </defs>
 <g id="Layer_x0020_1">
  <metadata id="CorelCorpID_0Corel-Layer"/>
  <path class="fil0" d="M71.555 20.918c27.967,0 50.638,22.671 50.638,50.637 0,27.967 -22.671,50.638 -50.638,50.638 -10.212,0 -19.718,-3.025 -27.671,-8.225 -1.733,-1.133 -3.967,-0.903 -5.431,0.562l-12.6 12.599 41.619 41.62c2.25,2.249 5.917,2.249 8.165,0l46.556 -46.556c13.946,-13.945 20.918,-32.292 20.918,-50.638 -0.001,-18.345 -6.973,-36.693 -20.918,-50.637l0 0 0 0c-13.946,-13.946 -32.292,-20.918 -50.638,-20.918 -18.345,0 -36.691,6.972 -50.637,20.918l0 0 0 0c-13.945,13.944 -20.917,32.292 -20.918,50.637 0,16.155 5.407,32.31 16.221,45.462l12.359 -12.359c1.464,-1.465 1.696,-3.698 0.563,-5.432 -5.2,-7.953 -8.225,-17.458 -8.225,-27.671 0,-27.966 22.671,-50.637 50.637,-50.637zm0 25.117c-4.092,0 -7.797,1.66 -10.478,4.341 -2.68,2.681 -4.34,6.385 -4.34,10.476 0,4.093 1.663,7.801 4.34,10.479 2.678,2.678 6.386,4.34 10.478,4.34 4.092,0 7.801,-1.662 10.478,-4.34 2.678,-2.678 4.341,-6.386 4.341,-10.479 0,-4.091 -1.66,-7.795 -4.341,-10.476 -2.681,-2.681 -6.386,-4.341 -10.478,-4.341zm0 -14.814c22.276,0 40.334,18.059 40.334,40.334 0,8.617 -2.705,16.601 -7.307,23.155l-0.366 -0.367c-17.99,-17.989 -47.332,-17.989 -65.321,0l-0.366 0.367c-4.604,-6.554 -7.308,-14.538 -7.308,-23.155 0,-22.275 18.058,-40.334 40.334,-40.334z"/>
 </g>
</svg>
